<svg xmlns="http://www.w3.org/2000/svg" version="1.1" xmlns:xlink="http://www.w3.org/1999/xlink" width="512" height="512" x="0" y="0" viewBox="0 0 362 362" style="enable-background:new 0 0 512 512" xml:space="preserve" class=""><g><path d="M361.6 178.8c-1.6-2-4-3.6-6.4-3.6h-74.8l-50.4-58c-1.2-1.2-2.8-2-4.4-2h-60c0-.4 0-.8-.4-1.2l-22.4-42.4c-1.2-2-3.2-3.2-5.2-3.2h-30c-3.2 0-6 2.8-6 6v40.4h-24c-2 0-4 1.2-5.2 2.8l-34 57.2H20.8c-3.2 0-6 2.4-6 6 0 1.2-.4 24.4 9.2 45.2-4.8-2-10.8-3.2-18-3.2-3.2 0-6 2.8-6 6s2.8 6 6 6c13.2 0 19.6 4.8 27.2 10.8 8 6 16.8 13.2 34.4 13.2h5.6c.8 0 1.6-.4 2.4-.8 12.4-1.6 19.6-7.6 26.4-12.4 7.2-5.6 13.6-10.8 27.2-10.8 13.2 0 19.6 4.8 27.2 10.8 8 6 16.8 13.2 34.4 13.2 17.6 0 26.4-7.2 34.4-13.2 7.2-5.6 13.6-10.8 27.2-10.8 13.2 0 19.6 4.8 27.2 10.8 8 6 16.8 13.2 34.4 13.2 3.2 0 6-2.8 6-6s-2.8-6-6-6c-4.4 0-8-.4-11.2-1.6l57.6-60c1.6-1.6 2-4.4 1.2-6.4zM142.4 97.2l9.6 18.4h-38.4V97.2h28.8zm-29.2-16.4h20.4l2.4 4.4h-22.8v-4.4zm-32 46.4h141.6l18.8 21.6H68l13.2-21.6zm-20 33.6H252l12.8 14.4H52.4l8.8-14.4zM290.8 240l-4.8-3.6c-8-6-16.8-13.2-34.4-13.2-17.6 0-26.4 7.2-34.4 13.2-7.2 5.6-13.6 10.8-27.2 10.8-13.2 0-19.6-4.8-27.2-10.8-8-6-16.8-13.2-34.4-13.2-17.2 0-26.4 7.2-34.4 13.2-6.8 5.2-12.8 10-24.4 10.4-10.4-.4-18.8-4.4-25.6-11.2-13.6-14-16.8-37.6-17.6-48.4h314.4l-50 52.8z" fill="#ffffff" opacity="1" data-original="#000000" data-darkreader-inline-fill="" style="--darkreader-inline-fill: var(--darkreader-background-ffffff, #dcdad7);"></path><path d="M314 281.6c-13.2 0-19.6-4.8-27.2-10.8-8-6-16.8-13.2-34.4-13.2-17.6 0-26.4 7.2-34.4 13.2-7.2 5.6-13.6 10.8-27.2 10.8-13.2 0-19.6-4.8-27.2-10.8-8-6-16.8-13.2-34.4-13.2-17.2 0-26.4 7.2-34.4 13.2-7.2 5.6-13.6 10.8-27.2 10.8-13.2 0-19.6-4.8-27.2-10.8-8-6-16.8-13.2-34.4-13.2-3.2 0-6 2.8-6 6s2.8 6 6 6c13.2 0 19.6 4.8 27.2 10.8 8 6.4 17.2 13.2 34.4 13.2s26.4-7.2 34.4-13.2c7.2-5.6 13.6-10.8 27.2-10.8 13.2 0 19.6 4.8 27.2 10.8 8 6 16.8 13.2 34.4 13.2 17.6 0 26.4-7.2 34.4-13.2 7.2-5.6 13.6-10.8 27.2-10.8 13.2 0 19.6 4.8 27.2 10.8 8 6 16.8 13.2 34.4 13.2 3.2 0 6-2.8 6-6s-2.8-6-6-6z" fill="#ffffff" opacity="1" data-original="#000000" data-darkreader-inline-fill="" style="--darkreader-inline-fill: var(--darkreader-background-ffffff, #dcdad7);"></path></g></svg>