<svg xmlns="http://www.w3.org/2000/svg" version="1.1" xmlns:xlink="http://www.w3.org/1999/xlink" width="512" height="512" x="0" y="0" viewBox="0 0 512 512" style="enable-background:new 0 0 512 512" xml:space="preserve" class=""><g><path d="M509.085 276.757a11.972 11.972 0 0 0-10.603-6.38h-55.214l-31.693-69.576v-40.113c0-6.617-5.383-12-12-12h-64.011l-21.472-54.601a7 7 0 0 0-13.029 5.123l8.871 22.559h-16.378c-6.617 0-12 5.383-12 12v14.919H255.52a11.932 11.932 0 0 0-11.165 7.601l-5.597 14.201h-74.936l-16.167-41.11a11.931 11.931 0 0 0-11.168-7.61H90.648c-6.617 0-12 5.383-12 12v36.721H43.094c-6.617 0-12 5.383-12 12v18.5l-29.093 73.82c-.015.038-.023.077-.037.115a7.19 7.19 0 0 0-.25.817 6.77 6.77 0 0 0-.11.571c-.012.076-.026.152-.035.229a7.106 7.106 0 0 0-.043.623c-.002.058-.009.116-.009.174l-.002.038v47.546a26.896 26.896 0 0 0 4.652 15.153l23.631 34.849-17.076 9.536a7 7 0 0 0 3.42 13.112 6.96 6.96 0 0 0 3.406-.89l40.401-22.562c9.924-5.541 22.255-5.541 32.179 0l20.899 11.671c14.135 7.895 31.696 7.895 45.831 0l20.899-11.671c9.925-5.541 22.256-5.541 32.179 0l20.899 11.671c14.351 8.015 31.482 8.015 45.831 0l20.899-11.671c9.924-5.541 22.255-5.541 32.179 0l20.899 11.671c14.135 7.894 31.694 7.894 45.831 0l20.898-11.671c9.925-5.541 22.256-5.541 32.179 0l40.402 22.562a6.997 6.997 0 0 0 9.524-2.698 6.999 6.999 0 0 0-2.698-9.524l-39.91-22.287 49.543-73.063a11.97 11.97 0 0 0 .673-12.355zM295.557 135.769h19.884l5.081 12.919h-24.965zm-38.675 26.919h140.694v9.316H280.805a7 7 0 1 0 0 14h116.771v9.315H244.021zM92.648 135.769h42.477l13.654 34.721H92.648zM45.094 184.49h188.147l-.997 2.528-3.272 8.302H45.094zm-2.235 24.83h357.213l27.812 61.058H18.796zm236.564 75.057v21.526h-40.69v-21.526zm-54.691 0v21.526h-40.69v-21.526zm-54.69 0v21.526h-40.691v-21.526zm275.384 72.679c-11.051-2.368-22.828-.768-32.879 4.844l-20.898 11.671c-9.924 5.543-22.255 5.543-32.179 0l-20.9-11.671c-14.135-7.895-31.696-7.895-45.831 0l-20.899 11.671c-10.075 5.625-22.105 5.625-32.179 0L218.762 361.9c-14.136-7.894-31.695-7.894-45.831 0l-20.899 11.671c-9.924 5.541-22.255 5.541-32.179 0l-20.9-11.671c-14.136-7.894-31.695-7.894-45.831 0l-11.055 6.174-24.313-35.854a12.947 12.947 0 0 1-2.24-7.296v-40.546h99.837v23.526c0 6.617 5.383 12 12 12h154.071c6.617 0 12-5.383 12-12v-23.526h201.286zM272.297 234.007h-12a7 7 0 1 1 0-14h12a7 7 0 1 1 0 14zm-48 0h-12a7 7 0 1 1 0-14h12a7 7 0 1 1 0 14zm-48 0h-12a7 7 0 1 1 0-14h12a7 7 0 1 1 0 14zm-48 0h-12a7 7 0 1 1 0-14h12a7 7 0 1 1 0 14zm-48 0h-12a7 7 0 1 1 0-14h12a7 7 0 1 1 0 14zm288 25.185h-12a7 7 0 1 1 0-14h12a7 7 0 1 1 0 14zm-48 0h-12a7 7 0 1 1 0-14h12a7 7 0 1 1 0 14zm-48 0h-12a7 7 0 1 1 0-14h12a7 7 0 1 1 0 14zm-48 0h-12a7 7 0 1 1 0-14h12a7 7 0 1 1 0 14zm-48 0h-12a7 7 0 1 1 0-14h12a7 7 0 1 1 0 14zm-48 0h-12a7 7 0 1 1 0-14h12a7 7 0 1 1 0 14zm-48 0h-12a7 7 0 1 1 0-14h12a7 7 0 1 1 0 14zm342.608 50.014h-12a7 7 0 1 1 0-14h12a7 7 0 1 1 0 14zm-48 0h-12a7 7 0 1 1 0-14h12a7 7 0 1 1 0 14zm-48 0h-12a7 7 0 1 1 0-14h12a7 7 0 1 1 0 14zm48.654 113.145c-7.925.001-15.847-1.973-22.915-5.92l-20.899-11.671c-9.924-5.541-22.255-5.541-32.179 0l-15.656 8.743a6.997 6.997 0 0 1-9.524-2.698 7 7 0 0 1 2.698-9.524l15.656-8.743c14.135-7.895 31.696-7.895 45.831 0l20.899 11.671c9.924 5.543 22.255 5.543 32.179 0l20.898-11.671c14.135-7.895 31.696-7.895 45.831 0l15.656 8.743a7 7 0 0 1 2.698 9.524 6.996 6.996 0 0 1-9.524 2.698l-15.656-8.743c-9.923-5.542-22.254-5.542-32.179 0l-20.898 11.671c-7.068 3.946-14.994 5.92-22.916 5.92z" fill="#ffffff" opacity="1" data-original="#000000" data-darkreader-inline-fill="" style="--darkreader-inline-fill: var(--darkreader-background-ffffff, #dcdad7);"></path></g></svg>