<svg xmlns="http://www.w3.org/2000/svg" version="1.1" xmlns:xlink="http://www.w3.org/1999/xlink" width="512" height="512" x="0" y="0" viewBox="0 0 16 16" style="enable-background:new 0 0 512 512" xml:space="preserve" class=""><g><path d="M14.644 7.47a2.36 2.36 0 0 0 .231-.97A2.378 2.378 0 0 0 12.5 4.125H9.687L6.8.275a.374.374 0 0 0-.3-.15h-2a.373.373 0 0 0-.335.542l1.729 3.458H3.655l-.89-.89a.376.376 0 0 0-.265-.11h-2a.373.373 0 0 0-.335.542c.807 1.614.934 1.876.954 2.458H.5a.375.375 0 0 0-.375.375v8c0 .207.168.375.375.375h1.852c.315.592.932 1 1.648 1s1.333-.408 1.648-1h4.704c.315.592.932 1 1.648 1s1.333-.408 1.648-1H15.5a.375.375 0 0 0 .375-.375v-4a4.353 4.353 0 0 0-1.231-3.03zm-2.769-.557a3.606 3.606 0 0 1 3.212 3.212H12.5a.626.626 0 0 1-.625-.625zM1.106 3.875h1.239l.89.89c.07.07.165.11.265.11h3a.373.373 0 0 0 .335-.542L5.106.875h1.207L9.2 4.725c.07.094.182.15.3.15h3c.896 0 1.625.729 1.625 1.625 0 .158-.026.314-.07.464a4.337 4.337 0 0 0-2.555-.839H1.87c-.02-.676-.132-.979-.764-2.25zm8.019 3V9.5c0 .345-.28.625-.625.625H5.375v-3.25zm-4.5 0v3.25H.875v-3.25zM4 15.125c-.62 0-1.125-.505-1.125-1.125S3.38 12.875 4 12.875 5.125 13.38 5.125 14 4.62 15.125 4 15.125zm8 0c-.62 0-1.125-.505-1.125-1.125s.505-1.125 1.125-1.125 1.125.505 1.125 1.125-.505 1.125-1.125 1.125zm1.862-1c.003-.042.013-.082.013-.125 0-1.034-.84-1.875-1.875-1.875s-1.875.841-1.875 1.875c0 .043.01.083.013.125H5.862c.003-.042.013-.082.013-.125 0-1.034-.84-1.875-1.875-1.875S2.125 12.966 2.125 14c0 .043.01.083.013.125H.875v-3.25H8.5c.758 0 1.375-.617 1.375-1.375V6.875h1.25V9.5c0 .758.617 1.375 1.375 1.375h2.625v3.25z" fill="#FFFFFF" opacity="1"></path></g></svg>