<svg xmlns="http://www.w3.org/2000/svg" version="1.1" xmlns:xlink="http://www.w3.org/1999/xlink" width="512" height="512" x="0" y="0" viewBox="0 0 591 591.179" style="enable-background:new 0 0 512 512" xml:space="preserve" class=""><g><path d="M10.965 163.254a23.908 23.908 0 0 0-.375 3.535v24.313a24.102 24.102 0 0 0 15.64 22.496v35.773c.043 11.977 9.461 21.82 21.422 22.387v206.668c-11.96.57-21.379 10.414-21.422 22.387v35.667a24.373 24.373 0 0 0-15.64 22.707v23.782c0 4.433 3.601 8.031 8.035 8.031h541.766a8.034 8.034 0 0 0 8.03-8.031v-23.782a24.367 24.367 0 0 0-15.636-22.707v-35.878c-.043-11.977-9.465-21.82-21.422-22.387V271.758c11.957-.567 21.38-10.41 21.422-22.387v-35.773a24.104 24.104 0 0 0 15.637-22.496v-24.153a23.394 23.394 0 0 0-.375-3.535 7.995 7.995 0 0 0 10.55-4.07 7.999 7.999 0 0 0-4.066-10.551L293.203.93a8.035 8.035 0 0 0-7.5 0L4.38 148.633a8.04 8.04 0 0 0-3.363 10.855 8.03 8.03 0 0 0 9.949 3.766Zm31.332 64.266v-12.372h92.648v12.266Zm206.293 44.292v206.614c-11.961.57-21.38 10.414-21.422 22.387v34.167h-76.266v-34.168c-.043-11.972-9.46-21.816-21.422-22.386V271.758c11.961-.567 21.38-10.41 21.422-22.387v-34.223h76.157v34.172c.02 11.996 9.445 21.864 21.425 22.438Zm-5.356-44.292v-12.372h92.653v12.266Zm206.297 44.292v206.614c-11.96.57-21.383 10.414-21.426 22.387v34.167h-76.261v-34.168c-.043-11.972-9.465-21.816-21.422-22.386V271.758c11.957-.567 21.379-10.41 21.422-22.387v-34.223H428v34.172c.016 11.996 9.441 21.864 21.422 22.438Zm-5.355-44.292v-12.372h92.648v12.266Zm92.648 295.199v12.261h-92.758V522.72Zm-200.937 0v12.261h-92.758V522.72Zm-79.371-266.867h-6.961a6.423 6.423 0 0 1-6.426-6.426v-5.84h92.648v5.84a6.423 6.423 0 0 1-6.425 6.426Zm57.894 16.066V478.32h-49.86V271.918h49.86Zm-57.894 222.469h72.836a6.423 6.423 0 0 1 6.425 6.425v5.84H243.13v-5.84a6.423 6.423 0 0 1 6.426-6.425ZM134.84 522.719v12.261H42.187V522.72ZM42.187 249.586v-6h92.653v5.84a6.424 6.424 0 0 1-6.43 6.426H48.453a6.425 6.425 0 0 1-6.266-6.48Zm71.231 22.492V478.32H63.609V271.918Zm-71.23 228.899a6.424 6.424 0 0 1 6.425-6.43h79.797a6.425 6.425 0 0 1 6.43 6.43v5.836H42.187Zm510.167 58.535v15.742H26.551v-15.742a8.302 8.302 0 0 1 8.3-8.305h509.204c4.52 0 8.215 3.621 8.3 8.14v.165Zm-15.636-58.535v5.836h-92.653v-5.836a6.424 6.424 0 0 1 6.426-6.43h79.961a6.427 6.427 0 0 1 6.266 6.265Zm-71.23-22.497V271.918h49.859V478.32Zm71.23-228.894a6.423 6.423 0 0 1-6.426 6.426h-79.746a6.423 6.423 0 0 1-6.426-6.426v-6h92.649ZM289.453 16.996l239.23 125.746H50.224ZM26.551 166.95a8.034 8.034 0 0 1 8.031-8.031h509.742a8.034 8.034 0 0 1 8.031 8.031v24.317a8.034 8.034 0 0 1-8.03 8.03H34.581a8.034 8.034 0 0 1-8.031-8.03Zm0 0" style="stroke: none; fill-rule: nonzero; fill-opacity: 1; --darkreader-inline-fill: var(--darkreader-background-ffffff, #dcdad7); --darkreader-inline-stroke: none;" fill="#ffffff" data-original="#1d2128" data-darkreader-inline-fill="" data-darkreader-inline-stroke="" opacity="1"></path></g></svg>