<svg xmlns="http://www.w3.org/2000/svg" version="1.1" xmlns:xlink="http://www.w3.org/1999/xlink" width="512" height="512" x="0" y="0" viewBox="0 0 68 68" style="enable-background:new 0 0 512 512" xml:space="preserve" class=""><g><path d="M65 42c.6 0 1-.4 1-1V23c0-.1 0-.2-.1-.3v-.1l-8.5-18c-.2-.4-.5-.6-.9-.6s-.7.2-.9.6l-8.5 18v.1c0 .1-.1.2-.1.3v14h-2v-3c0-.6-.4-1-1-1h-4c-.6 0-1 .4-1 1v3h-2v-3c0-.6-.4-1-1-1h-4c-.6 0-1 .4-1 1v3h-2v-3c0-.6-.4-1-1-1h-4c-.6 0-1 .4-1 1v3h-2V23c0-.1 0-.2-.1-.3v-.1l-2.8-6c-.2-.5-.8-.7-1.3-.5s-.7.8-.5 1.3l2.2 4.6H4.6l6.9-14.7 2.7 5.8c.2.5.8.7 1.3.5s.7-.8.5-1.3l-3.6-7.7c-.2-.4-.5-.6-.9-.6s-.7.2-.9.6l-8.5 18v.1c-.1.1-.1.2-.1.3v20.5c0 .6.4 1 1 1s1-.4 1-1v-9.7c0-1 .8-1.8 1.8-1.8s1.8.8 1.8 1.8V62H4V48c0-.6-.4-1-1-1s-1 .4-1 1v15c0 .6.4 1 1 1h62c.6 0 1-.4 1-1V46c0-.6-.4-1-1-1s-1 .4-1 1v16h-3.7v-5c0-.6-.4-1-1-1s-1 .4-1 1v5h-3.7V48c0-.6-.4-1-1-1s-1 .4-1 1v14H49V33.8c0-1 .8-1.8 1.8-1.8s1.8.8 1.8 1.8v9.7c0 .6.4 1 1 1s1-.4 1-1v-9.7c0-1 .8-1.8 1.8-1.8s1.8.8 1.8 1.8v18.7c0 .6.4 1 1 1s1-.4 1-1V33.8c0-1 .8-1.8 1.8-1.8s1.8.8 1.8 1.8V41c.2.6.6 1 1.2 1zM5.8 30c-.7 0-1.3.2-1.8.5V24h15v6.5c-.5-.3-1.2-.5-1.8-.5-1.1 0-2.1.5-2.8 1.3-.7-.8-1.7-1.3-2.8-1.3s-2.1.5-2.8 1.3C8 30.5 7 30 5.8 30zM47 62h-6v-9c0-.6-.4-1-1-1s-1 .4-1 1v9H29v-9c0-2.8 2.2-5 5-5 1.2 0 2.3.4 3.2 1.2.4.4 1.1.3 1.4-.1.4-.4.3-1.1-.1-1.4-1.2-1.1-2.8-1.7-4.5-1.7-3.9 0-7 3.1-7 7v9h-6v-7c0-.6-.4-1-1-1s-1 .4-1 1v7h-3.7V45c0-.6-.4-1-1-1s-1 .4-1 1v17H9.7V33.8c0-1 .8-1.8 1.8-1.8s1.8.8 1.8 1.8v6.7c0 .6.4 1 1 1s1-.4 1-1v-6.7c0-1 .8-1.8 1.8-1.8s1.8.8 1.8 1.8V51c0 .6.4 1 1 1s1-.4 1-1V39h3c.6 0 1-.4 1-1v-3h2v3c0 .6.4 1 1 1h4c.6 0 1-.4 1-1v-3h2v3c0 .6.4 1 1 1h4c.6 0 1-.4 1-1v-3h2v3c0 .6.4 1 1 1h3v23zm15.2-32c-1.1 0-2.1.5-2.8 1.3-.7-.8-1.7-1.3-2.8-1.3s-2.1.5-2.8 1.3c-.8-.8-1.8-1.3-3-1.3-.7 0-1.3.2-1.8.5V24h6c.6 0 1-.4 1-1s-.4-1-1-1h-5.4l6.9-14.7L63.4 22h-4.1c-.6 0-1 .4-1 1s.4 1 1 1H64v6.5c-.5-.3-1.2-.5-1.8-.5z" fill="#ffffff" opacity="1" data-original="#000000" data-darkreader-inline-fill="" style="--darkreader-inline-fill: var(--darkreader-background-ffffff, #dcdad7);"></path></g></svg>